<?xml version="1.0" standalone="no"?>
<!DOCTYPE svg PUBLIC "-//W3C//DTD SVG 20010904//EN"
 "http://www.w3.org/TR/2001/REC-SVG-20010904/DTD/svg10.dtd">
<svg version="1.0" xmlns="http://www.w3.org/2000/svg"
 width="1022.000000pt" height="136.000000pt" viewBox="0 0 1022.000000 136.000000"
 preserveAspectRatio="xMidYMid meet">

<g transform="translate(0.000000,136.000000) scale(0.100000,-0.100000)"
fill="#FFFFFF" stroke="none">
<path d="M1902 1337 c-32 -34 -103 -193 -166 -370 -31 -86 -56 -160 -56 -163
0 -15 -107 -139 -172 -199 -65 -60 -110 -86 -125 -72 -8 8 30 70 78 128 41 48
47 79 15 79 -9 0 -53 -25 -98 -57 -143 -97 -269 -147 -326 -129 -23 8 -42 54
-42 102 0 19 -5 34 -11 34 -6 0 -39 -28 -72 -63 -73 -74 -120 -99 -180 -95
-38 3 -42 6 -45 31 -2 18 9 51 32 92 33 57 35 65 20 73 -13 7 -37 0 -88 -24
-39 -19 -106 -43 -149 -54 -82 -20 -245 -37 -271 -27 -12 5 3 39 76 169 198
354 262 495 238 523 -17 21 -37 19 -85 -9 -99 -59 -217 -303 -329 -681 -36
-125 -45 -123 -22 5 11 62 12 77 1 89 -28 29 -43 5 -50 -81 -15 -191 -47 -459
-62 -535 -14 -67 -15 -85 -4 -95 23 -23 46 23 70 138 12 60 40 183 62 274 l40
165 152 1 c145 1 225 13 309 48 14 7 16 1 11 -52 -5 -55 -4 -60 22 -80 53 -42
151 -21 241 53 47 39 54 41 54 21 0 -26 41 -65 75 -72 48 -9 116 10 218 60 62
31 86 39 81 27 -4 -9 -9 -32 -12 -53 -3 -31 0 -39 22 -53 43 -28 101 1 202
100 46 46 84 82 84 82 0 -1 -6 -34 -13 -73 -15 -78 -8 -114 22 -114 28 0 132
39 295 110 77 33 141 60 144 60 2 0 2 -14 -2 -31 -7 -39 15 -92 48 -114 57
-37 188 -30 361 20 109 32 456 155 473 168 16 13 15 36 -3 43 -8 3 -72 -19
-142 -49 -336 -144 -611 -199 -674 -136 -25 25 -24 43 6 107 14 30 25 58 25
62 0 24 -44 12 -172 -49 -147 -70 -317 -141 -337 -141 -16 0 -14 23 16 133 23
86 37 116 106 221 142 217 206 377 178 445 -16 37 -39 40 -69 8z m18 -125
c-14 -44 -121 -254 -127 -248 -5 5 49 140 95 240 36 78 55 83 32 8z m-1459
-47 c-61 -131 -232 -457 -237 -452 -9 9 80 248 131 353 50 101 127 206 141
191 3 -3 -13 -45 -35 -92z"/>
<path d="M8086 1327 c-14 -18 -43 -71 -64 -118 -43 -94 -142 -360 -142 -383 0
-41 -226 -280 -277 -292 -49 -13 -39 14 39 114 49 61 56 92 23 92 -9 0 -51
-25 -94 -55 -135 -94 -264 -147 -324 -131 -28 7 -47 49 -47 102 0 19 -4 34
-10 34 -5 0 -40 -31 -79 -69 -73 -74 -117 -95 -181 -89 -50 4 -52 40 -6 123
33 58 35 65 19 73 -13 8 -32 3 -75 -19 -31 -16 -96 -40 -143 -54 -84 -24 -258
-44 -288 -32 -12 5 13 58 119 249 184 333 221 426 181 452 -13 9 -26 6 -63
-13 -102 -55 -209 -266 -324 -643 -50 -166 -60 -176 -35 -34 8 44 12 83 9 88
-11 17 -37 7 -107 -41 -168 -113 -306 -165 -422 -159 -102 5 -157 40 -203 128
-18 36 -39 66 -45 68 -7 1 -61 -29 -120 -68 -60 -38 -110 -70 -112 -70 -11 0
56 124 85 157 85 96 166 251 220 419 34 108 39 168 13 178 -9 4 -22 1 -29 -6
-10 -10 -243 -506 -265 -564 -7 -18 -135 -130 -194 -168 -138 -92 -205 -97
-352 -27 -47 23 -89 41 -93 41 -5 0 -36 -19 -69 -42 -33 -23 -64 -39 -67 -35
-4 4 28 42 70 85 79 81 97 122 54 122 -13 0 -42 -22 -77 -62 -31 -33 -82 -81
-115 -105 -133 -99 -159 -39 -115 265 21 142 21 146 3 159 -16 12 -20 12 -29
-3 -38 -64 -275 -377 -282 -371 -1 1 16 90 38 197 43 213 59 382 40 418 -43
81 -153 -56 -438 -546 -93 -160 -104 -188 -78 -199 24 -9 41 13 110 145 128
242 330 559 363 570 32 10 0 -214 -75 -523 -25 -104 -46 -192 -47 -195 -1 -3
9 -6 20 -8 23 -3 112 100 257 300 39 54 73 96 75 94 2 -3 -1 -36 -7 -75 -16
-103 -14 -236 4 -271 28 -53 71 -63 134 -30 39 19 39 19 44 0 8 -31 51 -25
125 16 l64 36 52 -25 c159 -78 279 -63 458 57 74 50 75 48 28 -45 -20 -37 -20
-43 -6 -57 13 -14 18 -12 50 15 41 37 231 163 244 163 5 0 14 -12 21 -27 23
-50 69 -99 123 -129 49 -27 61 -29 148 -28 81 0 107 5 181 33 48 18 125 54
173 82 47 27 87 49 89 49 9 0 -40 -442 -59 -532 -17 -79 -15 -108 9 -108 22 0
32 33 76 237 23 104 51 225 63 268 l23 78 115 -2 c113 -2 213 12 311 42 l47
14 -5 -57 c-5 -53 -4 -58 22 -78 53 -42 163 -17 247 57 39 34 48 38 48 17 0
-7 9 -25 20 -39 43 -54 131 -45 276 28 59 30 83 38 78 27 -4 -10 -8 -35 -8
-57 -1 -34 3 -42 26 -53 43 -21 105 13 200 108 67 67 79 75 74 52 -4 -15 -9
-55 -13 -89 -5 -54 -3 -64 12 -69 24 -9 100 16 279 93 83 36 157 67 163 70 9
4 12 -8 11 -41 -5 -111 97 -150 290 -110 82 17 265 74 412 129 50 18 90 31 90
29 0 -3 -13 -31 -30 -64 -35 -69 -37 -95 -11 -110 47 -25 114 2 300 118 63 40
119 72 126 72 6 0 26 -23 44 -50 79 -122 225 -163 387 -110 85 28 127 48 232
114 78 49 101 74 87 96 -11 18 -32 11 -84 -31 -131 -105 -290 -168 -391 -156
-86 10 -162 65 -215 155 -11 17 -25 34 -33 37 -15 5 -78 -28 -194 -101 -90
-58 -183 -104 -208 -104 -20 0 -20 1 -5 30 9 17 34 58 55 92 72 110 52 118
-117 45 -336 -144 -611 -199 -674 -136 -25 25 -24 43 6 107 14 30 25 58 25 62
0 24 -44 12 -172 -49 -150 -71 -317 -141 -338 -141 -15 0 -9 36 23 154 17 62
37 104 94 190 138 208 211 386 187 453 -14 41 -47 41 -78 0z m10 -150 c-29
-71 -107 -219 -113 -213 -5 4 46 133 95 240 44 97 58 75 18 -27z m-1541 -203
c-77 -151 -141 -271 -143 -266 -6 18 81 252 133 358 53 106 127 205 142 190 5
-4 -55 -131 -132 -282z m-998 130 c-23 -56 -83 -175 -74 -144 10 30 91 210 94
207 1 -2 -8 -30 -20 -63z"/>
<path d="M2330 990 c-131 -4 -145 -7 -148 -24 -7 -35 10 -38 154 -26 150 13
184 21 184 45 0 10 -8 14 -22 13 -13 -1 -88 -5 -168 -8z"/>
<path d="M8520 990 c-131 -4 -145 -7 -148 -24 -7 -36 11 -39 155 -26 149 13
183 21 183 45 0 10 -8 14 -22 13 -13 -1 -88 -5 -168 -8z"/>
</g>
</svg>
