<svg width="66" height="64" viewBox="0 0 66 64" fill="none" xmlns="http://www.w3.org/2000/svg">
<path d="M33 37.6424C36.1162 37.6424 38.6424 35.1163 38.6424 32.0001C38.6424 28.8838 36.1162 26.3577 33 26.3577C29.8838 26.3577 27.3576 28.8838 27.3576 32.0001C27.3576 35.1163 29.8838 37.6424 33 37.6424Z" fill="#61DAFB"/>
<path d="M33 43.56C49.7211 43.56 63.2762 38.3844 63.2762 32C63.2762 25.6156 49.7211 20.44 33 20.44C16.2789 20.44 2.72377 25.6156 2.72377 32C2.72377 38.3844 16.2789 43.56 33 43.56Z" stroke="#61DAFB" stroke-width="5"/>
<path d="M22.9887 37.78C31.3493 52.2609 42.609 61.4122 48.1381 58.22C53.6672 55.0278 51.3718 40.7009 43.0112 26.22C34.6507 11.7391 23.3909 2.58783 17.8619 5.78004C12.3328 8.97225 14.6282 23.2991 22.9887 37.78Z" stroke="#61DAFB" stroke-width="5"/>
<path d="M22.9887 26.22C14.6282 40.7009 12.3328 55.0278 17.8619 58.22C23.3909 61.4122 34.6507 52.2609 43.0113 37.78C51.3718 23.2991 53.6672 8.97223 48.1381 5.78002C42.609 2.58781 31.3493 11.7391 22.9887 26.22Z" stroke="#61DAFB" stroke-width="5"/>
</svg>
