<svg width="74" height="64" viewBox="0 0 74 64" fill="none" xmlns="http://www.w3.org/2000/svg">
<path d="M70.4867 25.6512H54.6494C54.2894 25.651 53.9328 25.7232 53.6002 25.8635C53.2675 26.0039 52.9653 26.2098 52.7109 26.4693C52.4565 26.7289 52.2548 27.037 52.1174 27.3761C51.9801 27.7152 51.9097 28.0785 51.9104 28.4453V61.2094C51.9101 61.5759 51.9808 61.9389 52.1184 62.2776C52.256 62.6162 52.4577 62.924 52.7121 63.1832C52.9665 63.4423 53.2686 63.6479 53.601 63.788C53.9334 63.9282 54.2897 64.0002 54.6494 64H70.4867C71.9973 64 73.224 62.7485 73.224 61.2094V28.4453C73.224 26.9028 71.9973 25.6512 70.4867 25.6512ZM59.7991 27.4344H65.4482V28.773H59.7991V27.4344ZM62.5689 61.2407C62.1055 61.2403 61.6611 61.0528 61.333 60.7192C61.005 60.3857 60.8201 59.9333 60.8187 59.4611C60.8386 59.0023 61.0316 58.569 61.3573 58.2515C61.683 57.934 62.1164 57.7568 62.5672 57.7568C63.018 57.7568 63.4514 57.934 63.7771 58.2515C64.1028 58.569 64.2957 59.0023 64.3157 59.4611C64.314 60.3222 63.5287 61.2407 62.5689 61.2407ZM71.171 55.1383H53.9634V30.3644H71.171V55.1383Z" fill="#61DAFB"/>
<path fill-rule="evenodd" clip-rule="evenodd" d="M24.6372 5.78648C22.9335 5.23531 21.9085 5.41115 21.304 5.76016C20.6995 6.10917 20.0347 6.90894 19.6601 8.65999C19.2857 10.4106 19.28 12.8105 19.7534 15.7656C19.8782 16.5443 20.0346 17.3514 20.2222 18.1834C22.611 17.6903 25.1565 17.305 27.8167 17.0406C29.3757 14.869 30.9822 12.8571 32.6037 11.0349C31.977 10.4564 31.3562 9.91748 30.7442 9.4201C28.4217 7.53252 26.3405 6.33752 24.6372 5.78648ZM36.3979 7.14233C35.6526 6.45019 34.9094 5.80283 34.1715 5.20311C31.5478 3.07064 28.875 1.44606 26.3098 0.616201C23.745 -0.213534 20.987 -0.331584 18.5869 1.05409C16.1869 2.43976 14.9101 4.88733 14.3462 7.52338C13.7823 10.1598 13.8529 13.2868 14.3878 16.6253C14.5382 17.5642 14.7273 18.5315 14.954 19.523C13.982 19.8224 13.0498 20.1423 12.1615 20.4815C9.0028 21.6875 6.2595 23.1899 4.25824 24.9965C2.25727 26.8028 0.776001 29.1323 0.776001 31.9037C0.776001 34.675 2.25727 37.0045 4.25824 38.8108C6.2595 40.6174 9.0028 42.1198 12.1615 43.3258C13.0498 43.665 13.982 43.9849 14.954 44.2843C14.7273 45.2758 14.5382 46.243 14.3878 47.1819C13.8529 50.5204 13.7824 53.6473 14.3463 56.2837C14.9101 58.9198 16.1869 61.3674 18.587 62.753C20.987 64.1387 23.7451 64.0207 26.3099 63.1909C28.875 62.3611 31.5478 60.7365 34.1716 58.604C34.9095 58.0043 35.6526 57.357 36.3979 56.6648C37.1432 57.3569 37.8863 58.0043 38.6242 58.604C41.248 60.7365 43.9207 62.361 46.4859 63.1909C47.477 63.5115 48.4971 63.7259 49.5141 63.7883C49.4726 63.6962 49.4495 63.594 49.4495 63.4864V58.3267C49.0698 58.2747 48.6414 58.1768 48.1585 58.0206C46.4552 57.4696 44.374 56.2746 42.0515 54.387C41.4395 53.8896 40.8188 53.3507 40.1922 52.7723C41.8136 50.9501 43.42 48.9383 44.979 46.7667C46.5098 46.6146 48.0027 46.4224 49.4495 46.1927V40.6848C49.2697 40.7158 49.0889 40.7461 48.9071 40.7759C49.0891 40.4718 49.2699 40.1657 49.4495 39.8575V24.1477C49.4495 24.0907 49.456 24.0352 49.4683 23.9819C49.2826 23.6629 49.0955 23.346 48.9072 23.0315C49.6254 23.149 50.3287 23.2761 51.0158 23.4124H66.485C64.8056 22.2919 62.8194 21.3158 60.6343 20.4815C59.746 20.1423 58.8138 19.8224 57.8418 19.523C58.0685 18.5315 58.2576 17.5642 58.408 16.6253C58.9429 13.2868 59.0134 10.1599 58.4495 7.52342C57.8857 4.88737 56.6089 2.4398 54.2088 1.05413C51.8088 -0.331546 49.0507 -0.213495 46.4859 0.616238C43.9207 1.44609 41.248 3.07068 38.6242 5.20315C37.8863 5.80286 37.1432 6.45021 36.3979 7.14233ZM36.3979 14.9475C35.9214 15.4902 35.4447 16.0528 34.9689 16.6342C35.4431 16.6267 35.9195 16.6229 36.3979 16.6229C36.8763 16.6229 37.3527 16.6267 37.8269 16.6342C37.3511 16.0528 36.8744 15.4902 36.3979 14.9475ZM23.8886 23.0314C23.1472 23.1527 22.4217 23.2843 21.7135 23.4256C21.9453 24.1096 22.194 24.8037 22.4597 25.5064C22.6903 25.092 22.9252 24.6775 23.1644 24.2632C23.4036 23.849 23.645 23.4383 23.8886 23.0314ZM25.2424 31.9036C26.0398 30.2791 26.9163 28.6331 27.8705 26.9803C28.8247 25.3275 29.812 23.7455 30.8201 22.2427C32.6256 22.121 34.4894 22.057 36.3979 22.057C38.3064 22.057 40.1702 22.121 41.9757 22.2427C42.9838 23.7455 43.9711 25.3275 44.9253 26.9802C45.8795 28.633 46.756 30.2791 47.5534 31.9036C46.756 33.5281 45.8795 35.1741 44.9253 36.8269C43.9711 38.4797 42.9838 40.0618 41.9756 41.5646C40.1701 41.6863 38.3063 41.7503 36.3979 41.7503C34.4894 41.7503 32.6257 41.6863 30.8202 41.5646C29.812 40.0618 28.8247 38.4797 27.8704 36.8268C26.9162 35.1741 26.0398 33.5281 25.2424 31.9036ZM19.2355 31.9036C18.1344 29.4676 17.1953 27.0705 16.428 24.7552C15.6136 25.0087 14.8366 25.2768 14.0998 25.5581C11.3039 26.6257 9.2284 27.8305 7.89952 29.0301C6.57034 30.23 6.2101 31.2056 6.2101 31.9037C6.2101 32.6017 6.57034 33.5773 7.89952 34.7772C9.2284 35.9768 11.3039 37.1816 14.0998 38.2492C14.8366 38.5305 15.6136 38.7986 16.428 39.0521C17.1953 36.7368 18.1344 34.3396 19.2355 31.9036ZM21.7135 40.3817C21.9452 39.6977 22.194 39.0036 22.4597 38.3008C22.6903 38.7152 22.9252 39.1296 23.1644 39.5439C23.4036 39.9582 23.6451 40.3689 23.8887 40.7759C23.1472 40.6546 22.4217 40.523 21.7135 40.3817ZM20.2222 45.6239C20.0346 46.4558 19.8782 47.2629 19.7535 48.0415C19.28 50.9966 19.2857 53.3965 19.6602 55.1471C20.0347 56.8982 20.6995 57.698 21.304 58.047C21.9085 58.396 22.9335 58.5718 24.6372 58.0206C26.3406 57.4696 28.4218 56.2746 30.7443 54.387C31.3562 53.8897 31.977 53.3507 32.6037 52.7723C30.9822 50.9501 29.3758 48.9383 27.8168 46.7667C25.1566 46.5023 22.611 46.117 20.2222 45.6239ZM37.8268 47.1731C37.351 47.7545 36.8744 48.317 36.3979 48.8597C35.9214 48.317 35.4448 47.7545 34.969 47.1731C35.4432 47.1806 35.9195 47.1844 36.3979 47.1844C36.8763 47.1844 37.3526 47.1806 37.8268 47.1731ZM52.5736 18.1834C50.1848 17.6903 47.6393 17.305 44.9791 17.0406C43.4201 14.869 41.8136 12.8571 40.1921 11.0349C40.8188 10.4564 41.4396 9.91751 42.0515 9.42013C44.374 7.53256 46.4552 6.33756 48.1586 5.78652C49.8623 5.23535 50.8873 5.41119 51.4918 5.7602C52.0963 6.10921 52.7611 6.90898 53.1356 8.66002C53.5101 10.4107 53.5158 12.8106 53.0423 15.7657C52.9176 16.5444 52.7612 17.3514 52.5736 18.1834ZM42.5301 31.9037C42.5301 35.2904 39.7846 38.0359 36.3979 38.0359C33.0111 38.0359 30.2656 35.2904 30.2656 31.9037C30.2656 28.5169 33.0111 25.7714 36.3979 25.7714C39.7846 25.7714 42.5301 28.5169 42.5301 31.9037Z" fill="#61DAFB"/>
</svg>
