<svg width="58" height="64" viewBox="0 0 58 64" fill="none" xmlns="http://www.w3.org/2000/svg">
<path d="M57.216 0L52.0749 57.5933L28.9655 64L5.91968 57.6023L0.784027 0H57.216Z" fill="#264DE4"/>
<path d="M47.6735 53.926L52.0669 4.70984H29V59.103L47.6735 53.926Z" fill="#2965F1"/>
<path d="M12.5574 26.0737L13.1906 33.1383H29V26.0737H12.5574Z" fill="#EBEBEB"/>
<path d="M29 11.7745H28.9756H11.2851L11.9273 18.8393H29V11.7745Z" fill="#EBEBEB"/>
<path d="M29 51.7716V44.4213L28.969 44.4296L21.101 42.305L20.5981 36.6706H16.7749H13.5062L14.496 47.7632L28.9675 51.7806L29 51.7716Z" fill="#EBEBEB"/>
<path d="M37.675 33.1383L36.8549 42.3006L28.9756 44.4273V51.7773L43.4586 47.7633L43.5648 46.5697L45.225 27.9707L45.3973 26.0736L46.6727 11.7745H28.9756V18.8393H38.9304L38.2876 26.0736H28.9756V33.1383H37.675Z" fill="white"/>
</svg>
