<svg width="30" height="64" viewBox="0 0 30 64" fill="none" xmlns="http://www.w3.org/2000/svg">
<path d="M14.7997 0.174774L16.5075 3.38253C16.8915 3.97449 17.3075 4.49845 17.7974 4.98641C19.2339 6.40496 20.5729 7.91896 21.8052 9.51807C24.699 13.3178 26.6508 17.5375 28.0447 22.1011C28.8807 24.8889 29.3346 27.7487 29.3686 30.6405C29.5086 39.2858 26.5448 46.7093 20.5692 52.8788C19.5973 53.8572 18.5472 54.7548 17.4295 55.5626C16.8375 55.5626 16.5575 55.1087 16.3135 54.6907C15.8692 53.9156 15.5735 53.0645 15.4416 52.1809C15.2316 51.135 15.0936 50.089 15.1616 49.0091V48.5212C15.1136 48.4172 14.5917 0.420756 14.7997 0.174774V0.174774Z" fill="#599636"/>
<path d="M14.7997 0.0688009C14.7297 -0.0711887 14.6597 0.0348034 14.5897 0.102798C14.6237 0.802746 14.3797 1.4267 13.9978 2.02266C13.5778 2.61461 13.0218 3.06858 12.4639 3.55654C9.3641 6.24034 6.92428 9.4821 4.97042 13.1078C2.37061 17.9875 1.03071 23.2171 0.650739 28.7227C0.476751 30.7085 1.27869 37.716 1.90465 39.7379C3.61252 45.1055 6.6803 49.6031 10.654 53.5068C11.6299 54.4468 12.6739 55.3187 13.7538 56.1566C14.0678 56.1566 14.1018 55.8767 14.1738 55.6687C14.3114 55.2236 14.4163 54.7691 14.4877 54.3088L15.1877 49.0812L14.7997 0.0688009Z" fill="#6CAC48"/>
<path d="M16.5076 57.6865C16.5776 56.8866 16.9616 56.2226 17.3795 55.5607C16.9596 55.3867 16.6476 55.0407 16.4036 54.6548C16.1932 54.2893 16.0191 53.9042 15.8836 53.5048C15.3957 52.041 15.2917 50.5051 15.1517 49.0092V48.1033C14.9777 48.2433 14.9417 49.4272 14.9417 49.6032C14.8399 51.1842 14.6301 52.7564 14.3137 54.3088C14.2098 54.9367 14.1398 55.5627 13.7538 56.1206C13.7538 56.1906 13.7538 56.2606 13.7878 56.3646C14.4157 58.2125 14.5877 60.0943 14.6937 62.0122V62.7121C14.6937 63.548 14.6597 63.3721 15.3537 63.652C15.6336 63.756 15.9456 63.792 16.2256 64C16.4356 64 16.4696 63.826 16.4696 63.686L16.3656 62.5361V59.3284C16.3316 58.7684 16.4356 58.2125 16.5056 57.6885L16.5076 57.6865Z" fill="#C2BFBF"/>
</svg>
