<svg width="82" height="64" viewBox="0 0 82 64" fill="none" xmlns="http://www.w3.org/2000/svg">
<path fill-rule="evenodd" clip-rule="evenodd" d="M17.5167 0C12.9326 0 9.54057 4.01232 9.69246 8.36357C9.83824 12.5439 9.64884 17.9581 8.28588 22.3734C6.91805 26.8011 4.60638 29.6069 0.829746 29.967V34.033C4.60638 34.3939 6.91805 37.1983 8.28572 41.6266C9.64884 46.0419 9.83808 51.4561 9.69231 55.6364C9.54041 59.987 12.9324 64 17.5173 64H64.4894C69.0735 64 72.4649 59.9877 72.313 55.6364C72.1672 51.4561 72.3566 46.0419 73.7196 41.6266C75.0874 37.1983 77.3935 34.3928 81.1703 34.033V29.967C77.3936 29.6061 75.0876 26.8017 73.7196 22.3734C72.3565 17.9588 72.1672 12.5439 72.313 8.36357C72.4649 4.01295 69.0735 0 64.4894 0H17.5161H17.5167ZM55.2979 39.3962C55.2979 45.3877 50.8288 49.0214 43.4123 49.0214H30.7872C30.426 49.0214 30.0797 48.8779 29.8243 48.6225C29.5689 48.3671 29.4255 48.0208 29.4255 47.6596V16.3405C29.4255 15.9794 29.5689 15.633 29.8243 15.3776C30.0797 15.1223 30.426 14.9788 30.7872 14.9788H43.3404C49.5246 14.9788 53.5832 18.3286 53.5832 23.4717C53.5832 27.0815 50.8529 30.3132 47.3745 30.8793V31.0676C52.1096 31.587 55.2979 34.8665 55.2979 39.3962ZM42.0356 19.2954H34.837V29.4635H40.9C45.5871 29.4635 48.1715 27.5761 48.1715 24.2026C48.171 21.0411 45.9491 19.2954 42.0356 19.2954ZM34.837 33.4979V44.7034H42.3005C47.1806 44.7034 49.7654 42.7452 49.7654 39.0653C49.7654 35.3853 47.1081 33.4973 41.9867 33.4973H34.837V33.4979Z" fill="#7952B3"/>
</svg>
