<svg width="62" height="64" viewBox="0 0 62 64" fill="none" xmlns="http://www.w3.org/2000/svg">
<path d="M61.789 38.3374C61.4169 37.2074 60.4422 36.4203 59.1817 36.2314C58.5874 36.1425 57.9067 36.1804 57.1012 36.3469C55.6972 36.6374 54.6557 36.748 53.8955 36.7693C56.7648 31.9116 59.0979 26.372 60.441 21.1574C62.6129 12.7256 61.4523 8.88434 60.0961 7.14688C56.5069 2.54799 51.2703 0.077425 44.9529 0.00183024C41.5828 -0.0394917 38.6243 0.627736 37.0809 1.10756C35.644 0.853305 34.0989 0.711352 32.4778 0.6851C29.4388 0.636486 26.7538 1.3008 24.4594 2.66612C23.1893 2.2354 21.1507 1.62821 18.7965 1.24076C13.2596 0.329246 8.79702 1.0395 5.53287 3.35182C1.5803 6.1515 -0.252002 11.0158 0.0868728 17.8096C0.194498 19.9666 1.39777 26.5295 3.29237 32.7536C4.38123 36.3311 5.54232 39.3019 6.74341 41.5843C8.44675 44.8208 10.2694 46.7267 12.3155 47.4112C13.4622 47.7943 15.5459 48.0626 17.7375 46.2323C18.0152 46.5697 18.3859 46.9049 18.8777 47.2163C19.5024 47.6112 20.2662 47.934 21.029 48.1253C23.7781 48.8144 26.3531 48.6421 28.5499 47.6761C28.5635 48.068 28.5739 48.4423 28.5827 48.7656C28.5972 49.2899 28.6117 49.804 28.6309 50.2848C28.7611 53.5356 28.9816 56.0633 29.6352 57.8319C29.671 57.9291 29.7193 58.0774 29.7702 58.2346C30.0962 59.2356 30.6414 60.9113 32.0284 62.2236C33.4646 63.5831 35.2019 64 36.793 64C37.591 64 38.3523 63.895 39.0201 63.7516C41.4005 63.2399 44.104 62.4606 46.0597 59.6682C47.9087 57.0285 48.8075 53.0526 48.9702 46.788C48.9913 46.6108 49.0107 46.4416 49.0293 46.2804L49.0681 45.9494L49.5037 45.9878L49.6159 45.9953C52.0404 46.1062 55.005 45.5906 56.8256 44.7425C58.2643 44.0731 62.8745 41.6324 61.789 38.3374" fill="black"/>
<path d="M57.6436 38.9782C50.4346 40.4694 49.9389 38.0219 49.9389 38.0219C57.5502 26.6966 60.7322 12.3206 57.9865 8.80221C50.4954 -0.795429 37.5282 3.74367 37.3118 3.86131L37.2422 3.87395C35.8179 3.57741 34.2241 3.40094 32.4325 3.37153C29.1708 3.31805 26.6963 4.22908 24.8187 5.65687C24.8187 5.65687 1.68648 -3.89919 2.7625 17.6752C2.99132 22.2649 9.32281 52.4034 16.8745 43.3002C19.6347 39.9714 22.3019 37.1569 22.3019 37.1569C23.6263 38.0392 25.2121 38.4894 26.8745 38.3277L27.0037 38.2179C26.9635 38.6311 26.9819 39.0353 27.0553 39.5139C25.1098 41.6935 25.6817 42.0761 21.7926 42.879C17.8572 43.6923 20.169 45.14 21.6784 45.5187C23.5083 45.9774 27.7416 46.6274 30.6019 42.6121L30.488 43.0703C31.2501 43.6826 31.7853 47.0525 31.6956 50.1076C31.6059 53.1626 31.546 55.26 32.1465 56.8983C32.7474 58.5366 33.3459 62.2228 38.4586 61.1243C42.7304 60.2062 44.9442 57.8273 45.2523 53.859C45.4707 51.0379 45.9654 51.455 45.9965 48.9326L46.3933 47.7387C46.8507 43.9145 46.466 42.6806 49.0977 43.2545L49.7377 43.3109C51.6744 43.3991 54.21 42.9983 55.698 42.3048C58.9021 40.8138 60.8025 38.3241 57.6431 38.9782H57.6436" fill="#336791"/>
<path d="M26.1728 19.7277C25.5231 19.6371 24.9348 19.7209 24.6372 19.947C24.4699 20.0741 24.418 20.2214 24.404 20.3228C24.3666 20.5914 24.5543 20.8884 24.6696 21.0415C24.9959 21.4752 25.4725 21.7732 25.9442 21.8388C26.0125 21.8485 26.0806 21.8529 26.1483 21.8529C26.9349 21.8529 27.6502 21.2386 27.7132 20.7853C27.792 20.2175 26.97 19.8391 26.1728 19.728V19.7277ZM47.694 19.7457C47.6319 19.3007 46.8422 19.1738 46.0927 19.2783C45.3442 19.3828 44.6184 19.7217 44.679 20.1677C44.7275 20.5145 45.3522 21.1067 46.0915 21.1067C46.154 21.1067 46.2171 21.1025 46.2806 21.0935C46.7741 21.025 47.1362 20.7107 47.3083 20.5296C47.5701 20.2535 47.7219 19.9458 47.694 19.7457" fill="white"/>
<path d="M60.0424 38.8087C59.7675 37.9752 58.8828 37.7071 57.4129 38.0115C53.0484 38.9147 51.4854 38.2891 50.9723 37.9101C54.3647 32.7278 57.1554 26.4634 58.661 20.6188C59.3741 17.8502 59.768 15.279 59.8003 13.1833C59.8359 10.8831 59.4451 9.19277 58.6394 8.1602C55.3908 3.99762 50.6227 1.76477 44.8512 1.70352C40.8833 1.65879 37.5309 2.67701 36.8811 2.96335C35.5125 2.62208 34.0205 2.41255 32.3962 2.38582C29.4176 2.33744 26.8428 3.05256 24.7111 4.51025C23.7851 4.16461 21.3922 3.34084 18.4657 2.86807C13.4063 2.05135 9.38585 2.67021 6.5168 4.70836C3.09338 7.14052 1.51293 11.4881 1.81908 17.63C1.9221 19.6963 3.09629 26.0531 4.94919 32.1408C7.38822 40.1534 10.0396 44.6893 12.8291 45.6225C13.1557 45.7316 13.5321 45.808 13.9473 45.808C14.9649 45.808 16.2126 45.3481 17.5106 43.7832C19.0939 41.8786 20.7316 40.0203 22.4219 38.2105C23.5185 38.8007 24.7232 39.1303 25.9554 39.1634C25.9578 39.1957 25.9609 39.228 25.9638 39.2601C25.7517 39.5137 25.5441 39.771 25.3409 40.0319C24.4871 41.1186 24.3095 41.3449 21.5614 41.9123C20.7796 42.0741 18.7035 42.5032 18.6729 43.9626C18.64 45.5571 21.1272 46.2268 21.4106 46.2977C22.3981 46.5457 23.3496 46.6679 24.2569 46.6679C26.4634 46.6679 28.4053 45.9407 29.9571 44.5335C29.9094 50.218 30.1457 55.8193 30.8264 57.5259C31.3839 58.9231 32.7457 62.3375 37.0474 62.3372C37.6786 62.3372 38.3733 62.2636 39.1376 62.0993C43.6271 61.1343 45.5767 59.1445 46.3308 54.7578C46.7344 52.4134 47.4269 46.8152 47.7527 43.8123C48.4402 44.0275 49.3252 44.1259 50.2819 44.1257C52.2774 44.1257 54.5799 43.7005 56.0239 43.0284C57.646 42.273 60.5733 40.4193 60.0424 38.8087V38.8087ZM49.3511 18.5172C49.3363 19.4037 49.2146 20.2085 49.0857 21.0485C48.9468 21.952 48.8033 22.8861 48.7672 24.0201C48.7315 25.1236 48.869 26.2709 49.0018 27.3805C49.2704 29.6216 49.546 31.9289 48.4792 34.2055C48.302 33.8906 48.1441 33.5652 48.0065 33.231C47.8739 32.9087 47.5859 32.3909 47.1872 31.6744C45.6361 28.8849 42.0037 22.3526 43.8632 19.6871C44.417 18.8937 45.8227 18.078 49.3511 18.5172V18.5172ZM45.0742 3.49859C50.2456 3.61308 54.3363 5.55303 57.2325 9.26423C59.4539 12.1108 57.0078 25.0633 49.9266 36.2375C49.8554 36.1467 49.7838 36.0562 49.7118 35.966L49.6221 35.8537C51.452 32.8234 51.0942 29.8251 50.7757 27.1669C50.6448 26.076 50.5212 25.0456 50.5527 24.0777C50.5852 23.0519 50.7204 22.172 50.8513 21.3213C51.012 20.2729 51.1757 19.1881 51.1306 17.9093C51.1643 17.7751 51.1778 17.6166 51.1601 17.4285C51.045 16.2022 49.6488 12.5321 46.803 9.21027C45.2463 7.39331 42.9762 5.36003 39.8766 3.98862C41.2098 3.71152 43.0329 3.45314 45.0742 3.49859V3.49859ZM16.1369 42.6378C14.7068 44.3622 13.7192 44.0316 13.3944 43.9232C11.2783 43.2154 8.82275 38.7302 6.65787 31.618C4.7846 25.4639 3.68992 19.2756 3.60314 17.5403C3.32972 12.0522 4.65637 8.22753 7.54651 6.17213C12.25 2.82747 19.9831 4.8294 23.0904 5.84471C23.0458 5.88895 22.9993 5.93027 22.9552 5.97524C17.856 11.139 17.977 19.9615 17.9896 20.5009C17.9891 20.709 18.0066 21.0036 18.0303 21.4088C18.1181 22.8927 18.2815 25.6545 17.8451 28.7821C17.4398 31.6885 18.3333 34.5331 20.296 36.5868C20.4975 36.7972 20.7092 36.9974 20.9304 37.1867C20.0568 38.125 18.1581 40.1998 16.1369 42.6378V42.6378ZM21.5859 35.3474C20.0039 33.6921 19.2855 31.3897 19.6144 29.03C20.075 25.7262 19.905 22.8487 19.8137 21.3028C19.8008 21.0865 19.7894 20.8969 19.7829 20.7474C20.5278 20.085 23.9798 18.2304 26.4416 18.796C27.5649 19.0539 28.2494 19.821 28.534 21.1404C30.0068 27.9714 28.7289 30.8185 27.7021 33.1065C27.4905 33.5779 27.2905 34.0234 27.1198 34.4843L26.9875 34.8406C26.6525 35.7414 26.3408 36.579 26.1476 37.3744C24.4658 37.3695 22.8298 36.6491 21.5859 35.3472V35.3474ZM21.844 44.5598C21.3529 44.4368 20.9113 44.2231 20.6521 44.0459C20.8686 43.9438 21.2538 43.8048 21.9218 43.6667C25.1547 42.9995 25.6541 42.5284 26.7444 41.1403C26.9943 40.8218 27.2777 40.4611 27.6701 40.0217L27.6706 40.0212C28.255 39.3649 28.5224 39.4762 29.0072 39.678C29.4001 39.8408 29.7829 40.3347 29.938 40.8782C30.0114 41.1349 30.0939 41.622 29.8241 42.0012C27.5465 45.1991 24.2275 45.158 21.844 44.5598V44.5598ZM38.7633 60.3477C34.8083 61.1975 33.408 59.1739 32.4851 56.8606C31.8896 55.3672 31.5967 48.6327 31.8045 41.1954C31.8071 41.0965 31.7931 41.001 31.7659 40.9111C31.7416 40.7335 31.7047 40.5578 31.6554 40.3855C31.3466 39.3034 30.5939 38.3982 29.691 38.0229C29.3322 37.8739 28.6739 37.6004 27.8827 37.8034C28.0514 37.1063 28.344 36.319 28.6613 35.4665L28.7943 35.108C28.9442 34.7038 29.1323 34.2849 29.331 33.8416C30.4056 31.4478 31.8772 28.169 30.28 20.762C29.6818 17.9875 27.6839 16.6327 24.6554 16.9474C22.8398 17.1358 21.1786 17.8704 20.3501 18.2916C20.1719 18.382 20.009 18.4696 19.8568 18.5546C20.0881 15.7593 20.9617 10.5352 24.2297 7.22997C26.2874 5.14929 29.0278 4.12158 32.3666 4.177C38.9453 4.28493 43.1641 7.67041 45.5449 10.4917C47.5966 12.9227 48.7075 15.3716 49.1509 16.6925C45.8167 16.3524 43.549 17.0123 42.3996 18.6604C39.8987 22.2452 43.7677 29.2028 45.6271 32.5467C45.9682 33.1595 46.2624 33.6892 46.355 33.9143C46.9606 35.3858 47.7445 36.3683 48.3168 37.0854C48.4923 37.3051 48.6624 37.5183 48.7919 37.7045C47.7821 37.9964 45.9682 38.6709 46.1335 42.0425C46.0002 43.7343 45.0521 51.655 44.5705 54.4535C43.9347 58.1506 42.578 59.5276 38.7633 60.348V60.3477ZM55.2717 41.4038C54.2391 41.8843 52.511 42.2448 50.8695 42.3223C49.0563 42.4074 48.1333 42.1186 47.9161 41.9409C47.8143 39.8398 48.5941 39.6203 49.4195 39.388C49.5491 39.3515 49.6757 39.3158 49.7978 39.273C49.8737 39.335 49.9569 39.3965 50.048 39.4568C51.5053 40.4213 54.1046 40.5253 57.7743 39.7657L57.8145 39.7577C57.3195 40.2217 56.4726 40.8445 55.2717 41.4038Z" fill="white"/>
</svg>
