<svg width="58" height="64" viewBox="0 0 58 64" fill="none" xmlns="http://www.w3.org/2000/svg">
<path d="M54.3467 31.5109C54.3467 28.221 51.6796 25.5539 48.3897 25.5539C48.1779 25.5539 47.9693 25.5652 47.7634 25.587L55.9454 1.45493H21.1746L29.3453 25.5659C29.2247 25.5583 29.104 25.5543 28.9831 25.5541C25.6933 25.5541 23.0261 28.2208 23.0261 31.5111C23.0261 34.1704 24.769 36.4219 27.1743 37.1879C25.9039 39.3884 24.3053 41.3705 22.4903 43.083C20.0222 45.4112 17.1976 47.1768 14.1427 48.2645C10.5054 46.396 8.78793 42.2406 10.3376 38.5972C10.5127 38.1856 10.6914 37.7686 10.8621 37.3534C13.4971 36.7384 15.4609 34.3763 15.4609 31.5538C15.4609 28.2637 12.7937 25.5967 9.50359 25.5967C6.2135 25.5967 3.54655 28.2637 3.54655 31.5538C3.54655 33.5713 4.5502 35.3534 6.0847 36.431C4.61029 39.7879 2.4429 43.3014 1.7676 47.3734C0.958286 52.2533 1.76488 57.4334 5.9856 60.3589C15.8153 67.1718 26.4854 56.1355 37.7355 53.361C41.8127 52.3558 46.2883 52.5177 49.8804 50.4374C52.578 48.875 54.3565 46.2856 54.861 43.3787C55.3599 40.507 54.6329 37.6478 52.9612 35.3293C53.8581 34.2593 54.3487 32.9071 54.3467 31.5109Z" fill="#99425B"/>
<path d="M53.4276 43.1297C52.9895 45.6536 51.4308 47.8579 49.1514 49.1784C47.0264 50.409 44.4801 50.7764 41.7839 51.165C40.3396 51.3732 38.8462 51.5889 37.3872 51.9485C33.5295 52.8998 29.7929 54.7558 26.1797 56.5506C18.9482 60.1425 12.7032 63.2442 6.81463 59.1629C2.50116 56.1735 2.70026 50.6423 3.20276 47.6114C3.66853 44.8032 4.92774 42.217 6.14523 39.716C6.35265 39.291 6.5584 38.8651 6.76248 38.4385C7.3762 38.6838 8.02017 38.8453 8.67703 38.9187C7.43755 43.0093 9.3868 47.457 13.4778 49.5586L14.0379 49.8464L14.6307 49.6353C17.865 48.4833 20.8453 46.6352 23.4887 44.1411C25.1973 42.529 26.6665 40.7455 27.874 38.8398C28.2411 38.8952 28.6119 38.923 28.9831 38.923C32.7381 38.923 35.8474 36.116 36.3286 32.4905C37.8656 32.4342 39.4981 32.4338 41.0439 32.49C41.5247 36.116 44.6345 38.9233 48.3894 38.9233C49.9595 38.9233 51.4158 38.4312 52.6156 37.5954C53.4485 39.3004 53.7594 41.2188 53.4276 43.1297ZM9.5038 27.0516C11.9864 27.0516 14.0059 29.0714 14.0059 31.554C14.0059 32.4456 13.7443 33.2771 13.295 33.9774C12.5467 35.1445 11.2746 35.9445 9.81311 36.0443C9.71084 36.0511 9.60766 36.0561 9.5038 36.0561C8.9505 36.0561 8.42056 35.9552 7.93053 35.772C6.94362 35.4009 6.11717 34.6969 5.59374 33.7817C5.20507 33.1036 5.00086 32.3355 5.00144 31.554C5.00144 29.0714 7.02121 27.0516 9.5038 27.0516ZM24.4812 31.5111C24.4812 29.2555 26.1486 27.3827 28.3151 27.0589C28.5332 27.026 28.7564 27.009 28.9834 27.009C30.4267 27.009 31.7118 27.6927 32.5358 28.7521C32.7422 29.0162 32.9185 29.3026 33.0614 29.6058C33.3413 30.202 33.4861 30.8525 33.4855 31.5111C33.4855 31.871 33.442 32.2209 33.3619 32.5565C32.9231 34.3932 31.3569 35.7974 29.4376 35.9906C29.2883 36.0055 29.1369 36.0132 28.9834 36.0132C28.1174 36.0139 27.2698 35.7634 26.5434 35.2919C25.3039 34.4889 24.4812 33.0946 24.4812 31.5111ZM43.2719 26.1572C42.2921 27.0924 41.5871 28.2779 41.2331 29.5852C39.5361 29.5226 37.8374 29.5226 36.1404 29.5852C35.7595 28.172 34.9699 26.9253 33.9075 25.9783L38.5663 16.5582L43.2719 26.1572ZM23.2039 2.91027H53.9159L46.662 24.3041C46.3499 24.3789 46.043 24.474 45.7434 24.5887L38.5777 9.97096L31.3916 24.5014C31.0783 24.3939 30.7581 24.3076 30.4333 24.2431L23.2039 2.91027ZM52.8916 31.5113C52.8916 31.9626 52.8242 32.3984 52.7002 32.81C52.4059 33.779 51.7948 34.621 50.9648 35.2012C50.2104 35.7306 49.311 36.0143 48.3894 36.0135C46.3107 36.0135 44.5572 34.5969 44.0415 32.6785C43.9391 32.2979 43.8873 31.9055 43.8873 31.5113C43.8873 30.8959 44.0116 30.309 44.2361 29.7743C44.3519 29.5007 44.4946 29.2393 44.6619 28.9938C45.4721 27.7979 46.8393 27.0092 48.3894 27.0092C48.5316 27.0092 48.6718 27.0164 48.8108 27.0296C51.0965 27.2425 52.8918 29.1707 52.8918 31.5113H52.8916ZM55.8016 31.5113C55.8016 27.8927 53.1943 24.8733 49.7602 24.2284L57.9749 0H19.1453L27.3727 24.2774C24.0579 25.015 21.5714 27.9772 21.5714 31.5111C21.5714 34.1647 22.9737 36.4953 25.0753 37.8051C24.0644 39.3113 22.8658 40.7285 21.492 42.0247C19.3133 44.0798 16.8863 45.6386 14.2697 46.6643C11.634 45.0087 10.5199 41.8864 11.6769 39.1666L11.7676 38.9534L11.9376 38.5534C14.8325 37.5437 16.9158 34.7885 16.9158 31.554C16.9158 27.4668 13.5907 24.1418 9.5038 24.1418C5.41687 24.1418 2.0914 27.4668 2.0914 31.554C2.0914 33.6168 2.93949 35.4849 4.30415 36.83C4.04963 37.3693 3.79126 37.9067 3.52907 38.4423C2.2812 41.005 0.867112 43.9095 0.33218 47.1352C-0.729974 53.5413 0.983442 58.6622 5.157 61.5546C7.68948 63.3097 10.2614 64 12.8495 64C17.7226 64 22.6524 61.5516 27.474 59.1566C30.9464 57.4321 34.5372 55.6486 38.084 54.7737C39.4038 54.4483 40.7616 54.2524 42.1993 54.0451C45.0504 53.6338 47.9983 53.2086 50.6097 51.6963C53.6367 49.943 55.7086 47.0019 56.2946 43.6277C56.7976 40.7308 56.1923 37.8294 54.7161 35.3685C55.4274 34.2077 55.8032 32.8725 55.8016 31.5111V31.5113Z" fill="white"/>
</svg>
