<svg width="68" height="64" viewBox="0 0 68 64" fill="none" xmlns="http://www.w3.org/2000/svg">
<path d="M47.0039 44.6971C49.4916 44.4395 51.379 42.2949 51.2931 39.7211C51.2075 37.1475 49.0626 35.0884 46.489 35.0884H46.3176C43.6579 35.1743 41.5991 37.4047 41.685 40.0642C41.7708 41.3511 42.2854 42.4664 43.0575 43.2385C40.1408 48.9866 35.6798 53.1903 28.9884 56.7077C24.4416 59.1098 19.7234 59.9678 15.0051 59.3674C11.1446 58.8525 8.14204 57.1369 6.25443 54.3055C3.50939 50.1018 3.25211 45.5548 5.56843 41.008C7.1985 37.7479 9.77183 35.3457 11.4019 34.1446C11.0588 33.0294 10.5439 31.142 10.2867 29.7695C-2.15263 38.7775 -0.865702 50.9598 2.90898 56.7077C5.73987 60.9974 11.4877 63.6569 17.836 63.6569C19.5517 63.6569 21.2673 63.4852 22.9832 63.0565C33.9642 60.9116 42.2856 54.3913 47.0039 44.6971ZM62.1026 34.059C55.5826 26.4236 45.9745 22.2199 34.9935 22.2199H33.621C32.8489 20.6757 31.2189 19.646 29.4174 19.646H29.2457C26.5865 19.7319 24.5277 21.9624 24.6133 24.6221C24.6991 27.1957 26.8438 29.2547 29.4174 29.2547H29.5888C31.4761 29.1689 33.1062 27.9678 33.7925 26.3377H35.3367C41.8567 26.3377 48.0333 28.2251 53.6097 31.9142C57.8989 34.7453 60.9874 38.4344 62.703 42.8953C64.1614 46.4986 64.0755 50.016 62.5313 53.0188C60.1294 57.5656 56.0975 60.0536 50.7786 60.0536C47.347 60.0536 44.0871 59.024 42.3712 58.2519C41.4277 59.1098 39.7118 60.4823 38.5107 61.3406C42.1998 63.0562 45.9745 64 49.5775 64C57.8131 64 63.9041 59.453 66.2204 54.9062C68.7082 49.9301 68.5365 41.3511 62.1026 34.059ZM18.5223 46.1552C18.6081 48.7291 20.7528 50.7878 23.3264 50.7878H23.4981C26.1575 50.7022 28.2163 48.4715 28.1304 45.8121C28.0449 43.2382 25.9 41.1794 23.3264 41.1794H23.1549C22.9832 41.1794 22.7257 41.1794 22.5545 41.265C19.0371 35.4313 17.5788 29.083 18.0936 22.2196C18.4364 17.0722 20.1524 12.611 23.1549 8.92188C25.6427 5.74761 30.4468 4.2034 33.7069 4.11781C42.8002 3.94611 46.6605 15.2704 46.918 19.8175C48.0333 20.0748 49.9206 20.6754 51.2075 21.1044C50.1779 7.2065 41.5991 0 33.3638 0C25.6427 0 18.5223 5.57644 15.6911 13.8123C11.745 24.7935 14.3186 35.3457 19.1227 43.6674C18.694 44.2678 18.4364 45.2116 18.5223 46.1554V46.1552Z" fill="#764ABC"/>
</svg>
